<svg version="1" xmlns="http://www.w3.org/2000/svg" width="933.333" height="933.333" viewBox="0 0 700.000000 700.000000"><path d="M561.1 82.4l-23.3 23.3 3.4 3.9c25.6 28.9 44.8 67.4 52.2 104.6 3.2 15.9 3.4 17.2 4.2 30.3 1.5 22.1.3 40.8-4.1 63.6-4.8 25.2-18.5 58-33.9 81.9-5.6 8.6-15.2 21.8-17.6 24-.3.3-1.4 1.5-2.4 2.7l-1.9 2.3 23.4 23.5c12.9 12.9 23.8 23.5 24.2 23.5 1.1 0 11.9-11.6 18.3-19.5 2.7-3.3 5.5-6.6 6.2-7.3 2.8-3 15.3-21.3 20.7-30.2 7.3-12.1 17.2-32.7 22-45.5 4.3-11.4 10.1-30.5 10.9-36 .4-2.1.8-4.1 1.1-4.5.4-.6 3-15.5 4-23 2.5-18.3 2.5-58.9 0-71.9-.2-1.1-.7-4.1-1.1-6.8-1.2-8.3-2-12.7-4.1-21.2-.8-3.6-1.6-7.2-1.8-8-.2-.9-1.5-5.4-2.9-10.1-11-36.9-31-74.2-56.3-104.6-8.7-10.5-16-18.4-17-18.4-.5 0-11.3 10.5-24.2 23.4zM247.5 146.6c-1.1.2-4.5.9-7.5 1.5-34.9 6.7-65.3 29.9-81.8 62.4-4.1 8.1-8.6 20.4-9.6 26.6-2.6 15-2.8 18.5-2.2 30.9 1.9 43.2 25.9 79.6 65.4 99.4 3.9 2 7.5 3.6 8.1 3.6.6 0 1.9.4 2.9 1 2 1.1 11.4 3.9 15.7 4.7 1.7.2 5 .9 7.5 1.4 4.8.9 31.8.6 36-.5 1.4-.3 3.9-.8 5.5-1.2 5-1 14.6-4.1 20.5-6.6 30.1-12.9 54.3-38.8 64.8-69.5 4.7-13.5 5.6-20.1 5.7-37.8 0-15.1-.3-18.2-2.7-27.5-11.1-43.9-43.5-75.7-88.5-86.6-6.4-1.5-34.7-2.8-39.8-1.8zM464.1 181.2l-24 24.2 3.5 6.1c6.7 11.6 11.4 23.9 13.1 34.3.5 2.6.8 11 .7 18.7-.1 14.7-1.8 24-6.3 33.9-1.2 2.5-2.1 4.7-2.1 5 0 .3-2.1 4-4.6 8.3l-4.5 7.7 24.4 24.4 24.5 24.5 2.3-2.4c18-18.4 32.3-44.1 37.8-68.1 3.1-13.2 3.2-14.5 3.6-30.3.4-17.3-.4-25.3-4.5-41-3.9-14.8-12.6-34.3-21-47-6-8.9-16.9-22.5-18.1-22.5-.4 0-11.6 10.9-24.8 24.2zM253.8 437.5c-.2.2-5.2.5-11.3.9-6 .3-12.1.8-13.5 1-1.4.3-5.2.7-8.5 1.1-3.3.3-6.9.8-8 1-1.1.3-3.7.7-5.7 1-21.4 2.9-71.9 15.9-80 20.5-1 .6-2.3 1-2.9 1-.6 0-2.5.6-4.2 1.4-1.8.7-6.1 2.6-9.7 4.1-36.4 15.4-63.4 36.4-74.1 57.7-6.2 12.4-6.8 17.2-6.6 53.1l.2 32.2h466v-34c-.1-29.7-.3-34.8-1.9-40-9.5-31.8-46.1-59.2-106.1-79.3-14.2-4.7-39.8-11.5-52-13.7-1.1-.2-3.3-.7-5-1-9.1-1.6-17.6-2.9-26.5-4-3-.4-6.6-.9-7.9-1.1-6.5-1-41.6-2.5-42.3-1.9z"/></svg>